# AST/ASF file generated using VICON BodyLanguage
# -----------------------------------------------
:version 1.10
:name VICON
:units
  mass 1.0
  length 0.45
  angle deg
:documentation
   .ast/.asf automatically generated from VICON data using
   VICON BodyBuilder and BodyLanguage model FoxedUp or BRILLIANT.MOD
:root
   order TX TY TZ RX RY RZ
   axis XYZ
   position 0 0 0  
   orientation 0 0 0 
:bonedata
  begin
     id 1 
     name lhipjoint
     direction 0.693937 -0.600361 0.397515 
     length 2.37164 
     axis 0 0 0  XYZ
  end
  begin
     id 2 
     name lfemur
     direction 0.34202 -0.939693 0  
     length 6.18497  
     axis 0 0 20  XYZ
    dof rx ry rz
    limits (-160.0 20.0)
           (-70.0 70.0)
           (-60.0 70.0)
  end
  begin
     id 3 
     name ltibia
     direction 0.34202 -0.939693 0   
     length 6.91601   
     axis 0 0 20   XYZ
    dof rx
    limits (-10.0 170.0)
  end
  begin
     id 4 
     name lfoot
     direction 0.0978718 -0.2689 0.958182   
     length 1.81453   
     axis -90 7.62852e-016 20   XYZ
    dof rx rz
    limits (-45.0 90.0)
           (-70.0 20.0)
  end
  begin
     id 5 
     name ltoes
     direction 1.53569e-011 -4.21951e-011 1   
     length 0.912052   
     axis -90 7.62852e-016 20   XYZ
    dof rx
    limits (-90.0 20.0)
  end
  begin
     id 6 
     name rhipjoint
     direction -0.643996 -0.637876 0.422354   
     length 2.23216  
     axis 0 0 0  XYZ 
  end
  begin
     id 7 
     name rfemur
     direction -0.34202 -0.939693 0   
     length 6.15404   
     axis 0 0 -20   XYZ
    dof rx ry rz
    limits (-160.0 20.0)
           (-70.0 70.0)
           (-70.0 60.0)
  end
  begin
     id 8 
     name rtibia
     direction -0.34202 -0.939693 0   
     length 6.86744   
     axis 0 0 -20   XYZ
    dof rx
    limits (-10.0 170.0)
 end
 begin
     id 9 
     name rfoot
     direction -0.118701 -0.326127 0.937844   
     length 1.9243  
     axis -90 -7.62852e-016 -20   XYZ
    dof rx rz
    limits (-45.0 90.0)
           (-20.0 70.0)
  end
  begin
     id 10 
     name rtoes
     direction -1.5356e-011 -4.2181e-011 1   
     length 0.958865   
     axis -90 -7.62852e-016 -20   XYZ
    dof rx
    limits (-90.0 20.0)
  end
  begin
     id 11 
     name lowerback
     direction 0.0310826 0.968686 -0.246334   
     length 2.00021   
     axis 0 0 0   XYZ
    dof rx ry rz
    limits (-20.0 45.0)
           (-30.0 30.0)
           (-30.0 30.0)
  end
  begin
     id 12 
     name upperback
     direction -0.0152834 0.999474 -0.0286152   
     length 2.03728   
     axis 0 0 0   XYZ
    dof rx ry rz
    limits (-20.0 45.0)
           (-30.0 30.0)
           (-30.0 30.0)
  end
  begin
     id 13 
     name thorax
     direction -0.0323701 0.996236 0.0804149   
     length 2.16   
     axis 0 0 0   XYZ
    dof rx ry rz
    limits (-20.0 45.0)
           (-30.0 30.0)
           (-30.0 30.0)
  end
  begin
     id 14 
     name lowerneck
     direction 0.0307935 0.982251 0.185027   
     length 1.43558   
     axis 0 0 0   XYZ
    dof rx ry rz
    limits (-20.0 45.0)
           (-30.0 30.0)
           (-30.0 30.0)
  end
  begin
     id 15 
     name upperneck
     direction -0.0927153 0.994775 0.0427454   
     length 1.44603   
     axis 0 0 0   XYZ
    dof rx ry rz
    limits (-20.0 45.0)
           (-30.0 30.0)
           (-30.0 30.0)
  end
  begin
     id 16
     name head
     direction -0.0341265 0.999406 -0.00472033  
     length 1.45931  
     axis 0 0 0   XYZ
    dof rx ry rz
    limits (-20.0 45.0)
           (-30.0 30.0)
           (-30.0 30.0)
  end
  begin
     id 17 
     name lclavicle
     direction 0.820755 0.555306 -0.134151  
     length 2.66075  
     axis 0 0 0   XYZ
    dof ry rz
    limits (-20.0 10.0)
           (0.0 20.0)
  end
  begin
     id 18 
     name lhumerus
     direction 1 -4.48971e-011 5.24853e-027   
     length 5.0546   
     axis -180 -30 -90   XYZ
    dof rx ry rz
    limits (-60.0 90.0)
           (-90.0 90.0)
           (-90.0 90.0)
  end
  begin
     id 19
     name lradius
     direction 1 -4.48971e-011 2.76575e-028   
     length 3.39013   
     axis -180 -30 -90   XYZ
    dof rx
    limits (-10.0 170.0)
  end
  begin
     id 20
     name lwrist
     direction 1 -4.48939e-011 -2.27826e-027   
     length 1.69507   
     axis 2.17013e-015 90 90   XYZ
    dof ry
    limits (-180.0 0.0)
 end
  begin
     id 21 
     name lhand
     direction 1 -4.49009e-011 -4.55652e-027   
     length 0.572425   
     axis 2.90745e-015 90 90   XYZ
    dof rx rz
    limits (-90.0 90.0)
           (-45.0 45.0)
  end
  begin
     id 22 
     name lfingers
     direction 1 -4.48955e-011 -9.11303e-027   
     length 0.461504   
     axis 5.81489e-015 90 90   XYZ
    dof rx
    limits (0.0 90.0)
  end
  begin
     id 23
     name lthumb
     direction 0.707107 -6.34929e-011 0.707107   
     length 0.66263   
     axis -90 45 2.85299e-015   XYZ
    dof rx rz
    limits (-45.0 45.0)
           (-45.0 45.0)
  end
  begin
     id 24 
     name rclavicle
     direction -0.754477 0.632921 -0.173712   
     length 2.73081  
     axis 0 0 0   XYZ 
    dof ry rz
    limits (-10.0 20.0)
           (-20.0 0.0)
  end
  begin
     id 25 
     name rhumerus
     direction -1 -4.48969e-011 5.1496e-027  
     length 5.0701   
     axis -180 30 90   XYZ
    dof rx ry rz
    limits (-90.0 60.0)
           (-90.0 90.0)
           (-90.0 90.0)
  end
  begin
     id 26 
     name rradius
     direction -1 -4.48967e-011 -7.15624e-028   
     length 3.14957   
     axis -180 30 90   XYZ
    dof rx
    limits (-10.0 170.0)
  end
  begin
     id 27 
     name rwrist
     direction -1 -4.48938e-011 -2.27826e-027   
     length 1.57479   
     axis 2.17013e-015 -90 -90   XYZ
    dof ry
    limits (-180.0 0.0)
  end
  begin
     id 28
     name rhand
     direction -1 -4.49008e-011 -4.55652e-027   
     length 0.718191   
     axis 2.90745e-015 -90 -90   XYZ
    dof rx rz
    limits (-90.0 90.0)
           (-45.0 45.0)
  end
  begin
     id 29
     name rfingers
     direction -1 -4.48953e-011 -9.11303e-027   
     length 0.579024   
     axis 5.81489e-015 -90 -90   XYZ
    dof rx
    limits (0.0 90.0)
  end
  begin
     id 30
     name rthumb
     direction -0.707107 -6.34937e-011 0.707107   
     length 0.831366   
     axis -90 -45 -2.85299e-015   XYZ
    dof rx rz
    limits (-45.0 45.0)
           (-45.0 45.0)
  end
:hierarchy
  begin
    root lhipjoint rhipjoint lowerback
    lhipjoint lfemur
    lfemur ltibia
    ltibia lfoot
    lfoot ltoes
    rhipjoint rfemur
    rfemur rtibia
    rtibia rfoot
    rfoot rtoes
    lowerback upperback
    upperback thorax
    thorax lowerneck lclavicle rclavicle
    lowerneck upperneck
    upperneck head
    lclavicle lhumerus
    lhumerus lradius
    lradius lwrist
    lwrist lhand lthumb
    lhand lfingers
    rclavicle rhumerus
    rhumerus rradius
    rradius rwrist
    rwrist rhand rthumb
    rhand rfingers
  end

#!OML:ASF H:\Male1\Project 1\Capture day 1\Session 1\Male1.ASF
:FULLY-SPECIFIED
:DEGREES
91
root 18.5065 15.3101 0.532566 336.296 -95.9121 -341.742
lowerback 9.1607 1.95143 4.43809
upperback 6.55821 2.61475 0.407876
thorax 1.88087 1.33265 -2.25439
lowerneck -8.00681 2.65343 7.49634
upperneck 23.2106 2.49916 -2.61315
head 8.69061 1.37243 -1.93354
rclavicle -3.08116e-014 8.34896e-015
rhumerus -28.8015 0.896928 -87.5113
rradius 32.5212
rwrist -12.2426
rhand -17.2332 2.23923
rfingers 7.12502
rthumb 9.01034 -27.5483
lclavicle -3.08116e-014 8.34896e-015
lhumerus -33.3679 5.57858 81.0763
lradius 23.7591
lwrist -9.40287
lhand -17.5306 13.1397
lfingers 7.12502
lthumb 8.72336 42.9394
rfemur 4.27106 8.598 32.0657
rtibia 19.7733
rfoot -21.2558 -18.4246
rtoes -21.1227
lfemur -56.0551 -1.37614 -20.2035
ltibia 89.5846
lfoot -9.91398 6.81242
ltoes -14.3976
92
root 18.2936 15.3181 0.520349 338.039 -96.137 -343.544
lowerback 8.99842 1.93391 4.30089
upperback 6.58985 2.57521 0.242653
thorax 2.00064 1.31515 -2.33932
lowerneck -7.94143 2.74669 7.59178
upperneck 23.2249 2.57153 -2.43985
head 8.68894 1.42998 -1.88415
rclavicle 1.98785e-016 -1.82882e-014
rhumerus -28.9197 1.27487 -87.8798
rradius 32.4128
rwrist -12.3521
rhand -17.0554 1.83641
rfingers 7.12502
rthumb 9.18189 -27.9437
lclavicle 1.98785e-016 -1.82882e-014
lhumerus -33.7295 5.47847 80.9762
lradius 23.766
lwrist -9.42479
lhand -17.5562 12.8103
lfingers 7.12502
lthumb 8.69865 42.6111
rfemur 6.01253 8.98667 32.2693
rtibia 18.3614
rfoot -21.2509 -19.0139
rtoes -20.8185
lfemur -56.367 -1.66828 -20.1388
ltibia 86.0146
lfoot -9.92594 7.54597
ltoes -13.0054
93
root 18.0799 15.3264 0.508353 338.722 -96.4456 -344.26
lowerback 8.78836 1.9211 4.26757
upperback 6.61578 2.54749 0.107445
thorax 2.1459 1.30695 -2.45042
lowerneck -7.86215 2.83818 7.64137
upperneck 23.216 2.64822 -2.25345
head 8.67579 1.48679 -1.82217
rclavicle -3.1818e-014 1.44119e-014
rhumerus -29.0478 1.6775 -88.2479
rradius 32.2592
rwrist -12.316
rhand -16.8182 1.53638
rfingers 7.12502
rthumb 9.41079 -28.2335
lclavicle -3.1818e-014 1.44119e-014
lhumerus -34.0186 5.46704 80.8826
lradius 23.8371
lwrist -9.36756
lhand -17.4869 12.68
lfingers 7.12502
lthumb 8.7655 42.478
rfemur 7.89361 9.27135 32.568
rtibia 16.628
rfoot -21.0152 -19.497
rtoes -20.4902
lfemur -56.3371 -1.8934 -19.8894
ltibia 82.1214
lfoot -9.82306 8.16065
ltoes -11.5608
94
root 17.8654 15.3358 0.496614 338.907 -96.8014 -344.437
lowerback 8.52471 1.91802 4.28097
upperback 6.62082 2.53564 -0.011263
thorax 2.30171 1.30863 -2.5701
lowerneck -7.74992 2.92005 7.64545
upperneck 23.1886 2.719 -2.05364
head 8.64853 1.53793 -1.74895
rclavicle -3.26613e-014 2.08227e-014
rhumerus -29.1973 2.04579 -88.5888
rradius 32.0779
rwrist -12.0955
rhand -16.5062 1.3815
rfingers 7.12502
rthumb 9.71181 -28.3746
lclavicle -3.26613e-014 2.08227e-014
lhumerus -34.2474 5.52694 80.7999
lradius 23.9777
lwrist -9.17134
lhand -17.3441 12.7788
lfingers 7.12502
lthumb 8.90334 42.571
rfemur 9.92339 9.45807 32.8899
rtibia 14.5133
rfoot -20.4937 -19.8672
rtoes -20.0724
lfemur -56.0093 -2.1018 -19.5099
ltibia 77.9426
lfoot -9.57211 8.62273
ltoes -10.081
95
root 17.65 15.3449 0.484982 339.034 -97.1919 -344.524
lowerback 8.22547 1.93162 4.28964
upperback 6.59934 2.54686 -0.123874
thorax 2.45063 1.32188 -2.68137
lowerneck -7.61682 2.99894 7.64853
upperneck 23.1627 2.79321 -1.88004
head 8.61817 1.5878 -1.68457
rclavicle -3.39176e-015 4.47266e-015
rhumerus -29.3798 2.34565 -88.8885
rradius 31.8837
rwrist -11.7563
rhand -16.1311 1.34746
rfingers 7.12502
rthumb 10.0737 -28.3914
lclavicle -3.39176e-015 4.47266e-015
lhumerus -34.4397 5.62541 80.7346
lradius 24.206
lwrist -8.7748
lhand -17.15 13.0683
lfingers 7.12502
lthumb 9.09062 42.8524
rfemur 12.1489 9.57189 33.1897
rtibia 11.9412
rfoot -19.6101 -20.1659
rtoes -19.6691
lfemur -55.404 -2.31254 -19.0498
ltibia 73.5391
lfoot -9.15522 8.96996
ltoes -8.89076
96
root 17.4336 15.3513 0.473256 339.104 -97.6135 -344.533
lowerback 7.90219 1.96029 4.2799
upperback 6.55865 2.5779 -0.221317
thorax 2.59273 1.34416 -2.767
lowerneck -7.47921 3.07903 7.66613
upperneck 23.1389 2.87787 -1.75243
head 8.58877 1.63929 -1.63744
rclavicle 2.16178e-014 9.44227e-015
rhumerus -29.5819 2.58418 -89.1355
rradius 31.6838
rwrist -11.4134
rhand -15.7283 1.3554
rfingers 7.12502
rthumb 10.4622 -28.3643
lclavicle 2.16178e-014 9.44227e-015
lhumerus -34.6033 5.73609 80.7053
lradius 24.5165
lwrist -8.18954
lhand -16.9758 13.4193
lfingers 7.12502
lthumb 9.25869 43.196
rfemur 14.6848 9.47852 33.4342
rtibia 8.69982
rfoot -18.2199 -20.2881
rtoes -19.438
lfemur -54.567 -2.5512 -18.51
ltibia 68.9963
lfoot -8.57933 9.24406
ltoes -8.02176
97
root 17.2166 15.3518 0.461228 338.997 -98.0592 -344.359
lowerback 7.57087 1.99367 4.25068
upperback 6.51136 2.61428 -0.291321
thorax 2.73064 1.36764 -2.81311
lowerneck -7.36041 3.17224 7.7083
upperneck 23.1229 2.9895 -1.68428
head 8.56797 1.70004 -1.61182
rclavicle -3.94091e-014 1.14301e-014
rhumerus -29.7907 2.78962 -89.3267
rradius 31.4948
rwrist -11.1419
rhand -15.3434 1.33027
rfingers 7.12502
rthumb 10.8335 -28.3703
lclavicle -3.94091e-014 1.14301e-014
lhumerus -34.7376 5.8522 80.7226
lradius 24.8771
lwrist -7.48759
lhand -16.9036 13.6922
lfingers 7.12502
lthumb 9.32831 43.4658
rfemur 18.2023 9.39466 33.6825
rtibia 3.56332
rfoot -15.7646 -20.514
rtoes -19.4833
lfemur -53.5345 -2.83133 -17.888
ltibia 64.434
lfoot -7.92723 9.49072
ltoes -7.5608
98
root 16.9992 15.3446 0.448876 338.564 -98.5162 -343.864
lowerback 7.24786 2.01501 4.21667
upperback 6.46448 2.63425 -0.324167
thorax 2.86119 1.38148 -2.81743
lowerneck -7.25196 3.28717 7.77251
upperneck 23.0947 3.14281 -1.67867
head 8.54814 1.77653 -1.6068
rclavicle -3.33461e-014 2.36554e-014
rhumerus -30.0074 2.99008 -89.4675
rradius 31.343
rwrist -10.9698
rhand -15.0281 1.25362
rfingers 7.12502
rthumb 11.1377 -28.4308
lclavicle -3.33461e-014 2.36554e-014
lhumerus -34.8571 5.98753 80.7821
lradius 25.268
lwrist -6.74833
lhand -16.9617 13.8096
lfingers 7.12502
lthumb 9.27227 43.5857
rfemur 20.8928 9.29986 33.9651
rtibia 6.36111e-015
rfoot -14.0335 -20.6106
rtoes -19.7721
lfemur -52.3567 -3.18098 -17.1721
ltibia 59.9656
lfoot -7.26388 9.78973
ltoes -7.49767
99
root 16.7809 15.3292 0.43656 337.829 -98.9852 -343.066
lowerback 6.91504 2.01971 4.18549
upperback 6.42752 2.63056 -0.317067
thorax 3.00405 1.38269 -2.78039
lowerneck -7.13481 3.42204 7.84823
upperneck 23.0186 3.33762 -1.72551
head 8.51346 1.86882 -1.61726
rclavicle 6.38596e-014 1.98785e-016
rhumerus -30.2232 3.18401 -89.5571
rradius 31.244
rwrist -10.8735
rhand -14.8082 1.14688
rfingers 7.12502
rthumb 11.3498 -28.526
lclavicle 6.38596e-014 1.98785e-016
lhumerus -34.9667 6.14605 80.8795
lradius 25.6697
lwrist -6.05116
lhand -17.1418 13.7698
lfingers 7.12502
lthumb 9.0985 43.5535
rfemur 21.7157 9.20011 34.2961
rtibia -6.67916e-014
rfoot -14.0719 -20.5247
rtoes -20.3006
lfemur -51.092 -3.6273 -16.3542
ltibia 55.6991
lfoot -6.6978 10.2206
ltoes -7.79971
100
root 16.562 15.3051 0.424552 336.64 -99.4532 -341.807
lowerback 6.57767 2.00214 4.19578
upperback 6.40017 2.59716 -0.267407
thorax 3.15768 1.3696 -2.72126
lowerneck -6.99307 3.56735 7.93174
upperneck 22.8726 3.55944 -1.80869
head 8.45275 1.97138 -1.63878
rclavicle 1.64494e-014 -3.37934e-015
rhumerus -30.4461 3.34167 -89.5931
rradius 31.2262
rwrist -10.8162
rhand -14.6764 1.02763
rfingers 7.12502
rthumb 11.4768 -28.6382
lclavicle 1.64494e-014 -3.37934e-015
lhumerus -35.0617 6.29751 81.0114
lradius 26.0614
lwrist -5.46226
lhand -17.3963 13.6086
lfingers 7.12502
lthumb 8.85293 43.4029
rfemur 22.5398 9.06902 34.6842
rtibia -1.11319e-014
rfoot -14.0948 -20.4019
rtoes -21.0565
lfemur -49.8067 -4.21177 -15.4013
ltibia 51.7191
lfoot -6.32589 10.8456
ltoes -8.47214
101
root 16.3417 15.273 0.413618 335.059 -99.9499 -340.148
lowerback 6.23677 1.97602 4.28628
upperback 6.38072 2.55322 -0.184758
thorax 3.32406 1.35366 -2.67252
lowerneck -6.81825 3.71133 8.02481
upperneck 22.6549 3.78875 -1.91488
head 8.36306 2.07651 -1.66931
rclavicle -3.11595e-014 -3.18055e-015
rhumerus -30.6932 3.43205 -89.58
rradius 31.3159
rwrist -10.7966
rhand -14.6105 0.908002
rfingers 7.12502
rthumb 11.5404 -28.7543
lclavicle -3.11595e-014 -3.18055e-015
lhumerus -35.137 6.38845 81.1761
lradius 26.4256
lwrist -5.01653
lhand -17.6634 13.3728
lfingers 7.12502
lthumb 8.59515 43.1779
rfemur 23.3717 8.92981 35.1389
rtibia 7.95139e-014
rfoot -14.131 -20.2189
rtoes -21.8863
lfemur -48.542 -4.93136 -14.2847
ltibia 48.0872
lfoot -6.26667 11.6763
ltoes -9.08968
102
root 16.1208 15.2334 0.404241 333.277 -100.443 -338.274
lowerback 5.91694 1.93712 4.4366
upperback 6.35988 2.49338 -0.0859375
thorax 3.47888 1.33143 -2.64131
lowerneck -6.60998 3.84606 8.12667
upperneck 22.3812 4.01095 -2.03298
head 8.24914 2.17831 -1.70662
rclavicle 1.3418e-015 1.35174e-014
rhumerus -30.9743 3.44442 -89.5254
rradius 31.5199
rwrist -10.8413
rhand -14.58 0.79098
rfingers 7.12502
rthumb 11.5698 -28.8697
lclavicle 1.3418e-015 1.35174e-014
lhumerus -35.1919 6.39004 81.3675
lradius 26.7547
lwrist -4.70013
lhand -17.8745 13.1808
lfingers 7.12502
lthumb 8.3915 42.9941
rfemur 24.2061 8.76043 35.6213
rtibia 6.36111e-015
rfoot -14.2171 -19.9824
rtoes -22.6726
lfemur -47.3318 -5.83939 -13.0276
ltibia 44.83
lfoot -6.59898 12.7006
ltoes -9.06704
103
root 15.8989 15.1871 0.396896 331.428 -100.932 -336.323
lowerback 5.64034 1.88775 4.63665
upperback 6.3298 2.42162 0.0176275
thorax 3.60167 1.30436 -2.63498
lowerneck -6.37626 3.97091 8.24091
upperneck 22.0769 4.22299 -2.16455
head 8.12126 2.2755 -1.75214
rclavicle -9.39258e-015 1.70955e-014
rhumerus -31.2924 3.38675 -89.44
rradius 31.8225
rwrist -10.9781
rhand -14.5613 0.672343
rfingers 7.12502
rthumb 11.5878 -28.9873
lclavicle -9.39258e-015 1.70955e-014
lhumerus -35.2402 6.31841 81.5662
lradius 27.0644
lwrist -4.47562
lhand -17.9621 13.123
lfingers 7.12502
lthumb 8.30691 42.9397
rfemur 25.0402 8.56456 36.1172
rtibia -1.27222e-014
rfoot -14.3315 -19.7523
rtoes -23.4883
lfemur -46.1889 -6.92449 -11.6642
ltibia 41.9675
lfoot -7.27596 13.8737
ltoes -8.49673
104
root 15.676 15.1346 0.391719 329.498 -101.428 -334.285
lowerback 5.43271 1.82797 4.89656
upperback 6.28861 2.33942 0.124466
thorax 3.67651 1.27314 -2.66162
lowerneck -6.13896 4.08895 8.35614
upperneck 21.7669 4.42543 -2.29627
head 7.99146 2.36859 -1.79918
rclavicle -1.94809e-014 7.15625e-015
rhumerus -31.6326 3.27119 -89.3345
rradius 32.1867
rwrist -11.2206
rhand -14.5693 0.566219
rfingers 7.12502
rthumb 11.5802 -29.0938
lclavicle -1.94809e-014 7.15625e-015
lhumerus -35.2962 6.20239 81.7512
lradius 27.363
lwrist -4.33173
lhand -17.9478 13.1234
lfingers 7.12502
lthumb 8.32075 42.9395
rfemur 25.8763 8.34398 36.6439
rtibia -1.27222e-014
rfoot -14.4759 -19.5785
rtoes -24.3286
lfemur -45.1268 -8.13576 -10.2168
ltibia 39.5016
lfoot -8.15446 15.1424
ltoes -7.63581
